<?xml version="1.0" encoding="UTF-8" standalone="no"?>
<svg
   xmlns:dc="http://purl.org/dc/elements/1.1/"
   xmlns:cc="http://creativecommons.org/ns#"
   xmlns:rdf="http://www.w3.org/1999/02/22-rdf-syntax-ns#"
   xmlns:svg="http://www.w3.org/2000/svg"
   xmlns="http://www.w3.org/2000/svg"
   viewBox="0 0 916.07062 547.56659"
   id="svg2"
   height="547.56659"
   width="916.07062"
   version="1.1">
  <metadata
     id="metadata65">
    <rdf:RDF>
      <cc:Work
         rdf:about="">
        <dc:format>image/svg+xml</dc:format>
        <dc:type
           rdf:resource="http://purl.org/dc/dcmitype/StillImage" />
      </cc:Work>
    </rdf:RDF>
  </metadata>
  <defs
     id="defs63" />
  <path
     id="path4"
     style="fill:#202040;fill-rule:evenodd"
     d="m 0,547.5666 915.5906,0 0,-547.0866 L 0,0.48 0,547.5666 Z" />
  <path
     id="path6"
     style="fill:none;stroke:#66ccff;stroke-width:3.11999989;stroke-linecap:round;stroke-linejoin:round;stroke-dasharray:none"
     d="M 488.9764,37.3304 424.3381,280.3353" />
  <path
     id="path8"
     style="fill:none;stroke:#66ccff;stroke-width:5;stroke-linecap:round;stroke-linejoin:round;stroke-dasharray:none"
     d="M 423.4818,281.0797 599.5276,388.8265" />
  <path
     id="path10"
     style="fill:none;stroke:#66ccff;stroke-width:5;stroke-linecap:round;stroke-linejoin:round;stroke-dasharray:none"
     d="M 424.315,280.3257 639.2126,179.0627" />
  <path
     id="path12"
     style="fill:none;stroke:#66ccff;stroke-width:6;stroke-linecap:round;stroke-linejoin:round;stroke-dasharray:none"
     d="M 423.5136,280.7669 371.3651,148.0082" />
  <path
     id="path14"
     style="fill:none;stroke:#66ccff;stroke-width:6;stroke-linecap:round;stroke-linejoin:round;stroke-dasharray:none"
     d="M 406.7717,445.5194 423.5891,280.0241" />
  <path
     id="path16"
     style="fill:none;stroke:#66ccff;stroke-width:4;stroke-linecap:round;stroke-linejoin:round;stroke-dasharray:none"
     d="M 160.1575,170.5587 423.4566,281.3284" />
  <path
     id="path18"
     style="fill:none;stroke:#66ccff;stroke-width:4;stroke-linecap:round;stroke-linejoin:round;stroke-dasharray:none"
     d="M 424.315,280.3257 239.5276,397.3304" />
  <path
     id="path20"
     style="fill:#33b0f0;fill-rule:evenodd"
     d="m 488.9764,274.0233 a 63.7795,63.7795 -180 1 1 -63.7795,-63.7795 63.7795,63.7795 -180 0 1 63.7795,63.7795 z" />
  <path
     id="path22"
     style="fill:#33b0f0;fill-rule:evenodd"
     d="m 488.9764,276.858 a 63.7795,63.7795 -180 1 1 -63.7795,-63.7796 63.7795,63.7795 -180 0 1 63.7795,63.7796 z" />
  <path
     id="path24"
     style="fill:#262626;fill-rule:evenodd"
     d="m 477.6378,274.732 a 51.7323,51.7323 -180 1 1 -51.7323,-51.7323 51.7323,51.7323 -180 0 1 51.7323,51.7323 z" />
  <g
     id="Layer1000">
    <path
       id="path27"
       style="fill:#66ccff;fill-rule:evenodd;stroke-width:4;stroke-linecap:round;stroke-linejoin:round"
       d="m 182.8346,171.852 a 19.9665,19.9665 -180 1 1 -19.9665,-19.9665 19.9665,19.9665 -180 0 1 19.9665,19.9665 z" />
    <path
       id="path29"
       style="fill:none;stroke:#66ccff;stroke-width:4;stroke-linecap:round;stroke-linejoin:round;stroke-dasharray:none"
       d="m 182.8346,171.852 a 19.9665,19.9665 -180 1 1 -19.9665,-19.9665 19.9665,19.9665 -180 0 1 19.9665,19.9665 z" />
  </g>
  <g
     id="Layer1001">
    <path
       id="path32"
       style="fill:#66ccff;fill-rule:evenodd;stroke-width:4;stroke-linecap:round;stroke-linejoin:round"
       d="m 400.5683,145.9302 a 29.2298,29.2298 -180 1 1 -29.2297,-29.2297 29.2298,29.2298 -180 0 1 29.2297,29.2297 z" />
    <path
       id="path34"
       style="fill:none;stroke:#66ccff;stroke-width:4;stroke-linecap:round;stroke-linejoin:round;stroke-dasharray:none"
       d="m 400.5683,145.9302 a 29.2298,29.2298 -180 1 1 -29.2297,-29.2297 29.2298,29.2298 -180 0 1 29.2297,29.2297 z" />
  </g>
  <g
     id="Layer1002">
    <path
       id="path37"
       style="fill:#66ccff;fill-rule:evenodd;stroke-width:4;stroke-linecap:round;stroke-linejoin:round"
       d="m 661.2722,179.0627 a 20.9511,20.9511 -180 1 1 -20.9511,-20.9511 20.9511,20.9511 -180 0 1 20.9511,20.9511 z" />
    <path
       id="path39"
       style="fill:none;stroke:#66ccff;stroke-width:4;stroke-linecap:round;stroke-linejoin:round;stroke-dasharray:none"
       d="m 661.2722,179.0627 a 20.9511,20.9511 -180 1 1 -20.9511,-20.9511 20.9511,20.9511 -180 0 1 20.9511,20.9511 z" />
  </g>
  <g
     id="Layer1003">
    <path
       id="path42"
       style="fill:#66ccff;fill-rule:evenodd;stroke-width:4;stroke-linecap:round;stroke-linejoin:round"
       d="M 500.315,39.0565 A 12.4471,12.4471 -180 1 1 487.8678,26.6094 12.4471,12.4471 -180 0 1 500.315,39.0565 Z" />
    <path
       id="path44"
       style="fill:none;stroke:#66ccff;stroke-width:4;stroke-linecap:round;stroke-linejoin:round;stroke-dasharray:none"
       d="M 500.315,39.0565 A 12.4471,12.4471 -180 1 1 487.8678,26.6094 12.4471,12.4471 -180 0 1 500.315,39.0565 Z" />
  </g>
  <g
     id="Layer1004">
    <path
       id="path47"
       style="fill:#66ccff;fill-rule:evenodd;stroke-width:4;stroke-linecap:round;stroke-linejoin:round"
       d="m 209.7638,425.6769 48.189,0 0,-48.189 -48.189,0 0,48.189 z" />
    <path
       id="path49"
       style="fill:none;stroke:#66ccff;stroke-width:4;stroke-linecap:round;stroke-linejoin:round;stroke-dasharray:none"
       d="m 209.7638,425.6769 48.189,0 0,-48.189 -48.189,0 0,48.189 z" />
  </g>
  <g
     id="Layer1005">
    <path
       id="path52"
       style="fill:#66ccff;fill-rule:evenodd;stroke-width:4;stroke-linecap:round;stroke-linejoin:round"
       d="m 377.0079,479.282 59.5275,0 0,-59.5275 -59.5275,0 0,59.5275 z" />
    <path
       id="path54"
       style="fill:none;stroke:#66ccff;stroke-width:4;stroke-linecap:round;stroke-linejoin:round;stroke-dasharray:none"
       d="m 377.0079,479.282 59.5275,0 0,-59.5275 -59.5275,0 0,59.5275 z" />
  </g>
  <g
     id="Layer1006">
    <path
       id="path57"
       style="fill:#66ccff;fill-rule:evenodd;stroke-width:4;stroke-linecap:round;stroke-linejoin:round"
       d="m 571.1811,421.4249 59.5276,0 0,-59.5276 -59.5276,0 0,59.5276 z" />
    <path
       id="path59"
       style="fill:none;stroke:#66ccff;stroke-width:4;stroke-linecap:round;stroke-linejoin:round;stroke-dasharray:none"
       d="m 571.1811,421.4249 59.5276,0 0,-59.5276 -59.5276,0 0,59.5276 z" />
  </g>
</svg>
